<?xml version="1.0" standalone="no"?>
<!DOCTYPE svg PUBLIC "-//W3C//DTD SVG 20010904//EN"
 "http://www.w3.org/TR/2001/REC-SVG-20010904/DTD/svg10.dtd">
<svg version="1.0" xmlns="http://www.w3.org/2000/svg"
 width="271.000000pt" height="82.000000pt" viewBox="0 0 271.000000 82.000000"
 preserveAspectRatio="xMidYMid meet">

<g transform="translate(0.000000,82.000000) scale(0.100000,-0.100000)"
fill="#000000" stroke="none">
<path d="M877 796 c-74 -27 -74 -27 -207 -391 -45 -121 -83 -226 -86 -234 -2
-7 -11 -10 -20 -7 -9 3 -82 6 -164 6 -145 0 -149 1 -179 26 -43 36 -43 82 0
118 30 25 35 26 170 26 l139 0 0 69 0 70 -146 3 c-146 3 -146 3 -170 31 -30
36 -31 77 -1 105 21 20 35 22 187 24 l165 3 0 70 0 70 -187 3 c-175 2 -191 1
-230 -19 -55 -27 -86 -56 -108 -99 -38 -76 -32 -153 16 -217 28 -37 30 -56 7
-74 -24 -20 -53 -89 -53 -128 0 -61 23 -114 71 -162 64 -65 98 -71 393 -67
l239 3 25 73 24 72 168 0 169 0 19 -52 c11 -29 21 -62 23 -73 4 -18 13 -20
102 -23 53 -1 97 -1 97 1 0 3 -59 164 -130 358 -141 383 -148 396 -227 418
-48 14 -59 13 -106 -3z m70 -158 c6 -7 27 -69 48 -138 20 -69 41 -129 46 -135
11 -11 12 -45 2 -45 -83 -4 -216 0 -223 6 -9 10 98 324 110 324 4 0 12 -6 17
-12z"/>
<path d="M1268 784 c-4 -3 19 -76 49 -162 30 -86 84 -240 119 -341 35 -102 71
-196 80 -208 53 -82 199 -85 264 -6 16 19 63 142 130 336 85 251 106 303 113
285 5 -13 9 -168 9 -346 l0 -323 262 3 263 3 48 30 c122 76 129 244 14 335
l-41 33 31 24 c108 84 89 264 -33 321 -44 21 -59 22 -384 22 l-338 0 -59 -192
c-32 -106 -74 -242 -92 -303 -19 -60 -36 -111 -38 -113 -17 -18 -41 43 -120
307 l-90 301 -91 0 c-50 0 -93 -3 -96 -6z m1209 -166 c32 -30 31 -87 0 -117
-22 -20 -32 -21 -143 -19 l-119 3 -3 78 -3 77 122 0 c112 0 125 -2 146 -22z
m15 -298 c52 -40 38 -128 -22 -149 -34 -12 -217 -15 -244 -5 -13 5 -16 23 -16
90 l0 84 129 0 c113 0 131 -2 153 -20z"/>
</g>
</svg>
