<?xml version="1.0" standalone="no"?>
<!DOCTYPE svg PUBLIC "-//W3C//DTD SVG 20010904//EN"
 "http://www.w3.org/TR/2001/REC-SVG-20010904/DTD/svg10.dtd">
<svg version="1.0" xmlns="http://www.w3.org/2000/svg"
 width="500.000000pt" height="500.000000pt" viewBox="0 0 500.000000 500.000000"
 preserveAspectRatio="xMidYMid meet">

<g transform="translate(0.000000,500.000000) scale(0.100000,-0.100000)"
fill="#000000" stroke="none">
<path d="M1945 3006 c-56 -24 -78 -66 -180 -347 l-99 -274 -171 3 c-157 3
-172 5 -192 24 -34 32 -31 80 8 112 30 25 35 26 170 26 l139 0 0 75 0 75 -145
0 c-142 0 -147 1 -170 25 -32 31 -33 74 -2 103 21 20 35 22 187 24 l165 3 0
75 0 75 -195 0 c-182 0 -198 -2 -236 -22 -128 -68 -164 -232 -72 -330 l20 -22
-33 -46 c-28 -39 -34 -57 -37 -114 -5 -82 16 -131 79 -184 60 -52 105 -59 383
-55 l239 3 25 73 24 72 167 0 168 0 22 -75 23 -75 99 0 c54 0 99 2 99 4 0 2
-58 163 -130 357 -77 210 -139 362 -152 377 -46 50 -137 67 -203 38z m137
-302 c26 -82 48 -155 48 -161 0 -10 -29 -13 -109 -13 -61 0 -112 3 -114 8 -8
13 105 323 117 319 6 -2 32 -71 58 -153z"/>
<path d="M2350 3000 c0 -17 228 -677 245 -710 31 -60 142 -88 218 -56 61 25
78 60 187 380 l105 308 3 -346 2 -347 268 3 269 3 48 30 c63 39 95 97 95 173
0 68 -21 112 -76 161 l-43 38 29 22 c105 77 87 260 -33 323 -41 22 -50 23
-384 26 l-342 3 -30 -98 c-17 -54 -59 -192 -95 -308 -40 -134 -68 -210 -77
-210 -8 0 -45 107 -104 305 l-91 305 -97 3 c-65 2 -97 -1 -97 -8z m1211 -169
c17 -13 23 -29 23 -56 0 -64 -24 -75 -165 -75 l-119 0 0 75 0 75 119 0 c101 0
122 -3 142 -19z m24 -306 c34 -33 34 -83 -1 -116 -24 -22 -34 -24 -155 -27
l-129 -4 0 86 0 86 130 0 c126 0 132 -1 155 -25z"/>
</g>
</svg>
