<?xml version="1.0" standalone="no"?>
<!DOCTYPE svg PUBLIC "-//W3C//DTD SVG 20010904//EN"
 "http://www.w3.org/TR/2001/REC-SVG-20010904/DTD/svg10.dtd">
<svg version="1.0" xmlns="http://www.w3.org/2000/svg"
 width="575.000000pt" height="183.000000pt" viewBox="0 0 575.000000 183.000000"
 preserveAspectRatio="xMidYMid meet">

<g transform="translate(0.000000,183.000000) scale(0.100000,-0.100000)"
fill="#000000" stroke="none">
<path d="M1913 1771 c-29 -10 -70 -30 -92 -44 -82 -54 -87 -66 -291 -628 -65
-179 -123 -336 -129 -350 -5 -13 -37 -98 -71 -189 -33 -91 -66 -178 -73 -195
l-12 -30 -5 30 -5 30 -350 5 c-372 5 -383 7 -426 56 -96 110 -40 276 103 302
35 7 290 12 576 12 9 0 12 39 12 160 l0 160 -272 1 c-150 0 -295 4 -321 8
-173 28 -202 250 -42 322 36 17 72 19 383 19 l342 0 -2 163 -3 162 -340 3
c-474 4 -555 -8 -678 -102 -70 -54 -103 -93 -142 -171 -86 -171 -60 -373 66
-509 21 -24 39 -46 39 -50 0 -4 -21 -33 -47 -64 -25 -31 -60 -86 -77 -122 -30
-62 -31 -71 -31 -190 0 -124 0 -126 37 -203 51 -107 125 -180 242 -238 l89
-44 586 0 585 0 12 45 c20 72 89 259 100 270 12 12 724 15 735 3 4 -5 30 -79
59 -165 l52 -158 210 0 c196 0 210 1 203 18 -7 17 -184 497 -255 692 -21 58
-52 141 -68 185 -16 44 -66 179 -110 300 -146 403 -151 413 -240 469 -88 55
-246 72 -349 37z m171 -343 c8 -13 62 -174 120 -357 79 -251 103 -337 93 -343
-17 -11 -489 -10 -506 1 -12 8 -8 29 26 133 99 295 193 561 204 574 17 21 47
17 63 -8z"/>
<path d="M2586 1762 c-20 -4 -21 5 10 -83 29 -85 115 -334 203 -589 33 -96 74
-215 91 -265 18 -49 72 -206 120 -348 88 -257 118 -321 169 -356 51 -34 56
-26 56 84 0 55 4 106 8 113 11 17 2 15 -17 -4 -10 -9 -16 -11 -16 -4 0 6 7 18
16 27 8 9 13 22 9 31 -3 8 0 21 6 28 16 19 4 18 -15 -2 -10 -9 -16 -11 -16 -4
0 6 7 18 16 27 8 9 13 22 9 31 -3 8 0 21 6 28 16 19 4 18 -15 -2 -10 -9 -16
-11 -16 -4 0 6 6 17 13 25 9 9 13 42 12 111 -1 57 3 105 9 114 7 10 3 9 -10
-3 -20 -17 -34 -14 -34 7 0 7 3 7 8 0 5 -8 13 -3 26 14 11 14 15 22 9 19 -6
-4 -13 -4 -16 0 -2 5 -2 2 -1 -4 2 -7 -1 -13 -6 -13 -20 0 -6 66 19 89 l26 24
-26 -16 c-27 -16 -39 -14 -39 7 0 6 5 4 11 -4 8 -11 9 -8 4 14 -4 21 -1 32 12
41 10 7 14 17 10 21 -4 5 -12 3 -16 -5 -6 -10 -10 -9 -14 4 -4 9 -3 13 2 10 5
-3 12 -1 16 5 3 5 0 10 -7 10 -9 0 -9 3 2 10 12 7 12 10 1 10 -7 0 -11 6 -8
15 4 8 2 17 -4 20 -5 4 -7 10 -5 14 3 4 -2 32 -11 62 -28 98 -204 684 -206
686 -4 3 -384 8 -401 5z m614 -988 c0 -8 -19 -13 -24 -6 -3 5 1 9 9 9 8 0 15
-2 15 -3z m30 -92 c0 -13 -12 -22 -22 -16 -10 6 -1 24 13 24 5 0 9 -4 9 -8z
m0 -42 c0 -16 -17 -20 -28 -7 -8 10 -6 13 9 14 10 1 19 -2 19 -7z m0 -38 c0
-13 -12 -22 -22 -16 -10 6 -1 24 13 24 5 0 9 -4 9 -8z m0 -41 c0 -6 -5 -13
-12 -17 -6 -4 -8 -3 -4 4 3 5 0 13 -6 15 -8 3 -6 6 5 6 9 1 17 -3 17 -8z m-30
-27 c0 -8 -19 -13 -24 -6 -3 5 1 9 9 9 8 0 15 -2 15 -3z m30 -12 c0 -13 -12
-22 -22 -16 -10 6 -1 24 13 24 5 0 9 -4 9 -8z m0 -81 c0 -6 -5 -13 -12 -17 -6
-4 -8 -3 -4 4 3 5 0 13 -6 15 -8 3 -6 6 5 6 9 1 17 -3 17 -8z m-30 -67 c0 -8
-19 -13 -24 -6 -3 5 1 9 9 9 8 0 15 -2 15 -3z m30 -12 c0 -13 -12 -22 -22 -16
-10 6 -1 24 13 24 5 0 9 -4 9 -8z m0 -81 c0 -6 -5 -13 -12 -17 -6 -4 -8 -3 -4
4 3 5 0 13 -6 15 -8 3 -6 6 5 6 9 1 17 -3 17 -8z m0 -40 c0 -6 -5 -13 -12 -17
-6 -4 -8 -3 -4 4 3 5 0 13 -6 15 -8 3 -6 6 5 6 9 1 17 -3 17 -8z m0 -39 c0
-13 -12 -22 -22 -16 -10 6 -1 24 13 24 5 0 9 -4 9 -8z m0 -42 c0 -16 -17 -20
-28 -7 -8 10 -6 13 9 14 10 1 19 -2 19 -7z m0 -40 c0 -5 -2 -10 -4 -10 -3 0
-8 5 -11 10 -3 6 -1 10 4 10 6 0 11 -4 11 -10z"/>
<path d="M3230 880 c-13 -8 -13 -11 -1 -22 8 -8 11 -8 7 -1 -3 6 0 13 6 16 7
2 11 7 8 10 -3 3 -12 2 -20 -3z"/>
<path d="M3264 793 c1 -19 5 -28 10 -23 6 6 5 18 -1 32 -10 21 -10 21 -9 -9z"/>
<path d="M3230 800 c-8 -5 -12 -12 -9 -15 4 -3 12 1 19 10 14 17 11 19 -10 5z"/>
</g>
</svg>
